<?xml version="1.0" encoding="utf-8"?>
<svg version="1.1" xmlns:xlink="http://www.w3.org/1999/xlink" width="31px" height="31px" xmlns="http://www.w3.org/2000/svg">
  <g transform="matrix(1 0 0 1 -992 -565 )">
    <path d="M 30.383522727272727 11.889204545454547  C 30.794507575757578 12.30018939393939  31 12.799242424242424  31 13.386363636363635  L 31 17.613636363636363  C 31 18.200757575757578  30.794507575757578 18.699810606060606  30.383522727272727 19.110795454545453  C 29.97253787878788 19.5217803030303  29.47348484848485 19.727272727272727  28.886363636363633 19.727272727272727  L 19.727272727272727 19.727272727272727  L 19.727272727272727 28.886363636363637  C 19.727272727272727 29.47348484848485  19.521780303030305 29.972537878787875  19.110795454545453 30.383522727272727  C 18.699810606060613 30.794507575757578  18.200757575757578 31  17.613636363636367 31  L 13.386363636363637 31  C 12.799242424242426 31  12.300189393939396 30.794507575757578  11.889204545454547 30.383522727272727  C 11.478219696969697 29.972537878787875  11.272727272727273 29.47348484848485  11.272727272727273 28.886363636363637  L 11.272727272727273 19.727272727272727  L 2.1136363636363633 19.727272727272727  C 1.5265151515151516 19.727272727272727  1.0274621212121213 19.5217803030303  0.6164772727272727 19.110795454545453  C 0.20549242424242423 18.699810606060606  0 18.200757575757578  0 17.613636363636363  L 0 13.386363636363635  C 0 12.799242424242424  0.20549242424242423 12.30018939393939  0.6164772727272727 11.889204545454547  C 1.0274621212121213 11.478219696969695  1.5265151515151516 11.272727272727273  2.1136363636363633 11.272727272727273  L 11.272727272727273 11.272727272727273  L 11.272727272727273 2.113636363636365  C 11.272727272727273 1.52651515151515  11.478219696969697 1.0274621212121193  11.889204545454547 0.616477272727273  C 12.300189393939396 0.2054924242424232  12.799242424242426 0  13.386363636363637 0  L 17.613636363636367 0  C 18.200757575757578 0  18.699810606060613 0.2054924242424232  19.110795454545453 0.616477272727273  C 19.521780303030305 1.0274621212121193  19.727272727272727 1.52651515151515  19.727272727272727 2.113636363636365  L 19.727272727272727 11.272727272727273  L 28.886363636363633 11.272727272727273  C 29.47348484848485 11.272727272727273  29.97253787878788 11.478219696969695  30.383522727272727 11.889204545454547  Z " fill-rule="nonzero" fill="#000000" stroke="none" transform="matrix(1 0 0 1 992 565 )" />
  </g>
</svg>