<?xml version="1.0" encoding="utf-8"?>
<svg version="1.1" xmlns:xlink="http://www.w3.org/1999/xlink" width="46px" height="50px" xmlns="http://www.w3.org/2000/svg">
  <g transform="matrix(1 0 0 1 -1412 -652 )">
    <path d="M 45.161458333333336 0.8413461538461564  C 45.72048611111111 1.4022435897435848  46 2.0833333333333313  46 2.8846153846153855  L 46 36.53846153846154  C 46 37.540064102564095  45.66059027777777 38.43149038461539  44.981770833333336 39.21274038461539  C 44.30295138888889 39.99399038461539  43.44444444444445 40.59995993589744  42.40625 41.03064903846154  C 41.368055555555564 41.461338141025635  40.334852430555564 41.78185096153846  39.306640625 41.9921875  C 38.27842881944445 42.20252403846154  37.315104166666664 42.30769230769231  36.416666666666664 42.30769230769231  C 35.518229166666664 42.30769230769231  34.55490451388889 42.20252403846154  33.526692708333336 41.9921875  C 32.49848090277778 41.78185096153846  31.46527777777778 41.461338141025635  30.427083333333336 41.03064903846154  C 29.388888888888893 40.59995993589744  28.53038194444445 39.99399038461539  27.8515625 39.21274038461539  C 27.172743055555557 38.43149038461539  26.833333333333336 37.540064102564095  26.833333333333336 36.53846153846154  C 26.833333333333336 35.53685897435898  27.172743055555557 34.64543269230769  27.8515625 33.86418269230769  C 28.53038194444445 33.08293269230769  29.388888888888893 32.476963141025635  30.427083333333336 32.04627403846154  C 31.46527777777778 31.615584935897434  32.49848090277778 31.295072115384613  33.526692708333336 31.084735576923077  C 34.55490451388889 30.87439903846154  35.518229166666664 30.76923076923077  36.416666666666664 30.76923076923077  C 38.513020833333336 30.76923076923077  40.4296875 31.15985576923077  42 31.94110576923077  L 42 15.805288461538463  L 20 22.926682692307693  L 20 44.230769230769226  C 19.166666666666668 45.232371794871796  18.827256944444446 46.12379807692308  18.1484375 46.90504807692308  C 17.469618055555557 47.68629807692308  16.611111111111114 48.29226762820513  15.572916666666668 48.722956730769226  C 14.534722222222225 49.15364583333333  13.501519097222225 49.47415865384615  12.473307291666668 49.68449519230769  C 11.445095486111112 49.894831730769226  10.481770833333334 50  9.583333333333334 50  C 8.684895833333334 50  7.721571180555557 49.894831730769226  6.693359375 49.68449519230769  C 5.6651475694444455 49.47415865384615  4.6319444444444455 49.15364583333333  3.59375 48.722956730769226  C 2.555555555555556 48.29226762820513  1.6970486111111112 47.68629807692308  1.0182291666666667 46.90504807692308  C 0.33940972222222215 46.12379807692308  0 45.232371794871796  0 44.230769230769226  C 0 43.22916666666667  0.33940972222222215 42.33774038461539  1.0182291666666667 41.55649038461539  C 1.6970486111111112 40.77524038461539  2.555555555555556 40.16927083333333  3.59375 39.738581730769226  C 4.6319444444444455 39.30789262820513  5.6651475694444455 38.98737980769231  6.693359375 38.777043269230774  C 7.721571180555557 38.566706730769226  8.684895833333334 38.46153846153846  9.583333333333334 38.46153846153846  C 11.6796875 38.46153846153846  13.596354166666668 38.85216346153846  16 39.63341346153846  L 16 10.576923076923078  C 15.333333333333332 9.955929487179482  15.523003472222225 9.390024038461537  15.90234375 8.87920673076923  C 16.281684027777782 8.368389423076922  16.770833333333332 8.012820512820507  17.369791666666668 7.8125  L 42.286458333333336 0.12019230769230727  C 42.526041666666664 0.04006410256410242  42.805555555555564 0  43.125 0  C 43.923611111111114 0  44.602430555555564 0.28044871794871695  45.161458333333336 0.8413461538461564  Z " fill-rule="nonzero" fill="#f59a23" stroke="none" transform="matrix(1 0 0 1 1412 652 )" />
  </g>
</svg>