<?xml version="1.0" encoding="utf-8"?>
<svg version="1.1" xmlns:xlink="http://www.w3.org/1999/xlink" width="19px" height="19px" xmlns="http://www.w3.org/2000/svg">
  <g transform="matrix(1 0 0 1 -338 -309 )">
    <path d="M 18.88766015625 9.5  C 18.88766015625 14.812499999999996  14.825160156249998 18.875  9.51266015625 18.875  C 4.20016015625 18.875  0.13766015624999994 14.812499999999996  0.13766015624999994 9.5  C 0.13766015624999994 4.1875000000000036  4.20016015625 0.125  9.51266015625 0.125  C 14.825160156249998 0.125  18.88766015625 4.1875  18.88766015625 9.5  Z M 15.76266015625 9.5  C 15.76266015625 6.0625  12.950160156249998 3.25  9.51266015625 3.25  C 6.07516015625 3.25  3.26266015625 6.0625  3.26266015625 9.5  C 3.26266015625 12.9375  6.07516015625 15.75  9.51266015625 15.75  C 12.950160156249998 15.75  15.76266015625 12.9375  15.76266015625 9.5  Z " fill-rule="nonzero" fill="#7f7f7f" stroke="none" transform="matrix(1 0 0 1 338 309 )" />
  </g>
</svg>