<?xml version="1.0" encoding="utf-8"?>
<svg version="1.1" xmlns:xlink="http://www.w3.org/1999/xlink" width="51px" height="51px" xmlns="http://www.w3.org/2000/svg">
  <g transform="matrix(1 0 0 1 -322 -293 )">
    <path d="M 33.31508856370313 49.40625  C 33.31508856370313 50.362500000000004  32.68076022859076 51  31.72926772592222 51  L 19.042701023674915 51  C 18.09120852100637 51  17.456880185894 50.362500000000004  17.456880185894 49.40625  L 17.456880185894 43.35  C 16.188223515669268 42.7125  14.919566845444539 42.074999999999996  13.968074342775994 41.4375  L 8.89344766187707 44.625  C 8.259119326764706 44.94375  7.307626824096158 44.94375  6.673298488983794 43.987500000000004  L 0.3300151378601418 32.831250000000004  C -0.30431319725222455 31.875  0.01285097030395804 30.91875  0.9643434729725057 30.599999999999998  L 6.0389701538714275 27.412499999999998  L 6.0389701538714275 23.587500000000002  L 0.9643434729725062 20.400000000000002  C 0.01285097030395804 20.08125  -0.30431319725222455 19.125  0.33001513786014064 18.16875  L 6.673298488983792 7.0125  C 6.990462656539975 6.375  7.941955159208523 6.0562499999999995  8.893447661877069 6.6937500000000005  L 13.968074342775994 9.88125  C 14.919566845444539 9.24375  16.18822351566927 8.2875  17.456880185894 7.96875  L 17.456880185894 1.59375  C 17.456880185894 0.6375000000000001  18.09120852100637 0  19.042701023674915 0  L 31.72926772592222 0  C 32.68076022859076 0  33.31508856370313 0.6375000000000001  33.31508856370313 1.59375  L 33.31508856370313 7.6499999999999995  C 34.583745233927864 8.2875  35.85240190415259 8.924999999999999  36.80389440682114 9.5625  L 41.87852108772006 6.375  C 42.512849422832424 6.0562499999999995  43.464341925500975 6.0562499999999995  44.09867026061333 7.0125  L 50.441953611736984 18.16875  C 51.07628194684935 19.125  50.75911777929318 20.08125  49.80762527662463 20.400000000000002  L 44.732998595725704 23.587500000000002  L 44.732998595725704 27.412499999999998  L 49.80762527662463 30.599999999999998  C 50.441953611736984 30.91875  50.75911777929318 31.875  50.441953611736984 32.831250000000004  L 44.09867026061333 43.987500000000004  C 43.781506093057146 44.62499999999999  42.8300135903886 44.94375  41.87852108772006 44.62499999999999  L 36.80389440682114 41.43749999999999  C 35.852401904152586 42.07499999999999  34.583745233927864 43.03124999999999  33.31508856370313 43.349999999999994  L 33.31508856370313 49.40625  Z M 20.62852186145583 42.07500000000001  L 20.628521861455827 47.8125  L 30.143446888141305 47.8125  L 30.143446888141305 42.393750000000004  C 30.143446888141305 41.75625  30.460611055697488 41.11875  31.094939390809852 40.800000000000004  C 32.68076022859076 40.1625  34.26658106637168 39.206250000000004  35.53523773659641 38.25  C 36.16956607170878 37.93125  36.80389440682115 37.93125  37.4382227419335 38.25  L 42.195685255276246 41.11875  L 46.95314776861898 32.831250000000004  L 42.195685255276246 29.962500000000002  C 41.56135692016389 29.325000000000003  41.244192752607695 28.6875  41.56135692016389 28.05  C 41.56135692016389 27.09375  41.87852108772006 26.45625  41.87852108772006 25.5  C 41.87852108772006 24.54375  41.87852108772006 23.90625  41.56135692016389 22.95  C 41.56135692016389 22.3125  41.87852108772006 21.675  42.195685255276246 21.35625  L 46.95314776861898 18.4875  L 42.195685255276246 10.200000000000001  L 37.4382227419335 13.06875  C 36.80389440682115 13.387499999999998  36.16956607170878 13.387499999999998  35.53523773659641 13.06875  C 34.26658106637168 12.112499999999999  32.68076022859076 11.156249999999998  31.094939390809852 10.518749999999999  C 30.46061105569749 9.88125  30.143446888141305 9.24375  30.143446888141305 8.606250000000001  L 30.143446888141305 3.1875  L 20.628521861455827 3.1875  L 20.628521861455827 8.606250000000001  C 20.628521861455827 9.24375  20.311357693899645 9.88125  19.67702935878728 10.200000000000001  C 18.09120852100637 10.8375  16.505387683225454 11.793750000000001  15.236731013000723 12.75  C 14.60240267788836 13.06875  13.968074342775994 13.06875  13.33374600766363 12.75  L 8.576283494320892 10.200000000000001  L 3.818820980978152 18.4875  L 8.576283494320892 21.356250000000003  C 9.210611829433258 21.675  9.527775996989437 22.312500000000004  9.210611829433258 22.950000000000003  C 9.210611829433258 23.906250000000004  8.893447661877076 24.543750000000003  8.893447661877076 25.500000000000007  C 8.893447661877076 26.456250000000008  8.893447661877076 27.093750000000007  9.210611829433258 28.050000000000008  C 9.52777599698944 28.687500000000007  9.210611829433258 29.32500000000001  8.576283494320892 29.643750000000008  L 3.818820980978152 32.51250000000001  L 8.576283494320892 40.80000000000001  L 13.33374600766363 37.931250000000006  C 13.968074342775996 37.61250000000001  14.602402677888362 37.61250000000001  15.236731013000723 37.931250000000006  C 16.505387683225457 38.88750000000001  18.091208521006372 39.84375000000001  19.677029358787284 40.48125000000001  C 20.311357693899648 40.80000000000001  20.62852186145583 41.437500000000014  20.62852186145583 42.07500000000001  Z " fill-rule="nonzero" fill="#7f7f7f" stroke="none" transform="matrix(1 0 0 1 322 293 )" />
  </g>
</svg>