<?xml version="1.0" encoding="utf-8"?>
<svg version="1.1" xmlns:xlink="http://www.w3.org/1999/xlink" width="22px" height="29px" xmlns="http://www.w3.org/2000/svg">
  <g transform="matrix(1 0 0 1 -640 -694 )">
    <path d="M 21.621993127147764 13.831663326653308  C 21.87399770904926 14.025384101536405  22 14.24816299265197  22 14.5  C 22 14.751837007348028  21.87399770904926 14.974615898463592  21.621993127147764 15.168336673346692  L 4.006872852233677 28.70941883767535  C 3.754868270332188 28.90313961255845  3.4650630011454755 29  3.1374570446735395 29  C 2.809851088201604 29  2.5200458190148916 28.90313961255845  2.268041237113402 28.70941883767535  L 0.3780068728522337 27.256513026052104  C 0.12600229095074464 27.062792251169  0 26.84001336005344  0 26.58817635270541  C 0 26.33633934535738  0.12600229095074464 26.113560454241817  0.3780068728522337 25.919839679358716  L 15.233676975945016 14.5  L 0.3780068728522337 3.0801603206412826  C 0.12600229095074464 2.8864395457581815  0 2.6636606546426176  0 2.41182364729459  C 0 2.159986639946556  0.12600229095074464 1.9372077488309918  0.3780068728522337 1.7434869739478942  L 2.268041237113402 0.2905811623246496  C 2.5200458190148916 0.09686038744154879  2.809851088201604 0  3.1374570446735395 0  C 3.4650630011454755 0  3.754868270332188 0.09686038744154879  4.006872852233677 0.2905811623246496  L 21.621993127147764 13.831663326653308  Z " fill-rule="nonzero" fill="#7f7f7f" stroke="none" transform="matrix(1 0 0 1 640 694 )" />
  </g>
</svg>