<?xml version="1.0" encoding="utf-8"?>
<svg version="1.1" xmlns:xlink="http://www.w3.org/1999/xlink" width="31px" height="43px" xmlns="http://www.w3.org/2000/svg">
  <g transform="matrix(1 0 0 1 -1358 -322 )">
    <path d="M 30.467353951890033 2.5851703406813606  C 30.822451317296682 2.8724114896459536  31 3.202738810955238  31 3.5761523046092196  C 31 3.9495657982631913  30.822451317296682 4.279893119572476  30.467353951890033 4.567134268537074  L 9.534364261168385 21.5  L 30.467353951890033 38.432865731462925  C 30.822451317296682 38.72010688042752  31 39.050434201736806  31 39.42384769539078  C 31 39.797261189044754  30.822451317296682 40.12758851035404  30.467353951890033 40.41482965931864  L 27.804123711340207 42.569138276553105  C 27.449026345933564 42.8563794255177  27.040664375715927 43  26.579037800687285 43  C 26.117411225658653 43  25.709049255441013 42.8563794255177  25.353951890034363 42.569138276553105  L 0.5326460481099656 22.490981963927855  C 0.177548682703322 22.203740814963258  0 21.87341349365397  0 21.5  C 0 21.126586506346023  0.177548682703322 20.79625918503674  0.5326460481099656 20.509018036072145  L 25.353951890034363 0.4308617234468942  C 25.709049255441013 0.14362057448229648  26.117411225658653 0  26.579037800687285 0  C 27.040664375715927 0  27.449026345933564 0.14362057448229648  27.804123711340207 0.4308617234468942  L 30.467353951890033 2.5851703406813606  Z " fill-rule="nonzero" fill="#f59a23" stroke="none" transform="matrix(1 0 0 1 1358 322 )" />
  </g>
</svg>