<?xml version="1.0" encoding="utf-8"?>
<svg version="1.1" xmlns:xlink="http://www.w3.org/1999/xlink" width="36px" height="31px" xmlns="http://www.w3.org/2000/svg">
  <g transform="matrix(1 0 0 1 -1666 -415 )">
    <path d="M 16.204326923076923 2.659634317862167  C 16.478365384615383 2.935771214252225  16.615384615384617 3.262775433661507  17 3.640646976090013  L 17 27.359353023909986  C 16.615384615384617 27.73722456633849  16.478365384615383 28.064228785747773  16.204326923076923 28.340365682137833  C 15.930288461538462 28.616502578527896  15.605769230769232 28.754571026722925  15.23076923076923 28.754571026722925  C 14.855769230769232 28.754571026722925  14.531250000000002 28.616502578527896  14.257211538461538 28.340365682137833  L 7.052884615384615 21.080872011251756  L 1.3846153846153846 21.080872011251756  C 1.0096153846153848 21.080872011251756  0.685096153846154 20.942803563056728  0.4110576923076923 20.666666666666668  C 0.13701923076923075 20.390529770276604  0 20.063525550867322  0 19.68565400843882  L 0 11.314345991561181  C 0 10.936474449132675  0.13701923076923075 10.609470229723389  0.4110576923076923 10.333333333333334  C 0.685096153846154 10.057196436943268  1.0096153846153848 9.919127988748244  1.3846153846153846 9.919127988748244  L 7.052884615384615 9.919127988748244  L 14.257211538461538 2.659634317862167  C 14.531250000000002 2.383497421472105  14.855769230769232 2.245428973277076  15.23076923076923 2.245428973277076  C 15.605769230769232 2.245428973277076  15.930288461538462 2.383497421472105  16.204326923076923 2.659634317862167  Z M 24.003605769230766 12.404360056258788  C 24.61658653846154 13.363572433192687  24.923076923076923 14.395452414439752  24.923076923076923 15.5  C 24.923076923076923 16.604547585560244  24.61658653846154 17.632794186591656  24.003605769230766 18.584739803094234  C 23.390625 19.536685419596807  22.579326923076923 20.216127519924985  21.56971153846154 20.623066104078763  C 21.425480769230774 20.695733708391934  21.24519230769231 20.73206751054852  21.028846153846153 20.73206751054852  C 20.653846153846157 20.73206751054852  20.329326923076923 20.597632442569147  20.05528846153846 20.328762306610408  C 19.781250000000004 20.059892170651658  19.644230769230766 19.729254571026722  19.644230769230766 19.336849507735582  C 19.644230769230766 19.031645569620252  19.730769230769234 18.773675574308484  19.903846153846153 18.56293952180028  C 20.076923076923077 18.352203469292075  20.286057692307693 18.17053445850914  20.53125 18.01793248945148  C 20.776442307692314 17.86533052039381  21.021634615384617 17.698195030473507  21.266826923076923 17.51652601969058  C 21.51201923076923 17.33485700890764  21.721153846153847 17.073253633380215  21.894230769230766 16.731715893108298  C 22.067307692307693 16.390178152836377  22.153846153846153 15.979606188466947  22.153846153846153 15.5  C 22.153846153846153 15.020393811533053  22.067307692307693 14.609821847163618  21.894230769230766 14.2682841068917  C 21.721153846153847 13.926746366619783  21.51201923076923 13.665142991092356  21.266826923076923 13.483473980309425  C 21.021634615384617 13.30180496952649  20.776442307692314 13.13466947960619  20.53125 12.982067510548525  C 20.286057692307693 12.829465541490856  20.076923076923077 12.647796530707922  19.903846153846153 12.437060478199719  C 19.730769230769234 12.226324425691512  19.644230769230766 11.968354430379746  19.644230769230766 11.663150492264416  C 19.644230769230766 11.270745428973274  19.781250000000004 10.940107829348333  20.05528846153846 10.671237693389592  C 20.329326923076923 10.40236755743085  20.653846153846157 10.267932489451475  21.028846153846153 10.267932489451475  C 21.24519230769231 10.267932489451475  21.425480769230774 10.304266291608064  21.56971153846154 10.376933895921237  C 22.579326923076923 10.769338959212378  23.390625 11.445147679324895  24.003605769230766 12.404360056258788  Z M 28.622596153846153 9.341420534458509  C 29.848557692307693 11.223511486169713  30.46153846153846 13.276371308016877  30.46153846153846 15.5  C 30.46153846153846 17.723628691983123  29.848557692307693 19.776488513830284  28.622596153846153 21.65857946554149  C 27.39663461538462 23.540670417252695  25.774038461538463 24.910454758556018  23.754807692307693 25.76793248945148  C 23.567307692307697 25.84060009376465  23.387019230769234 25.876933895921237  23.213942307692307 25.876933895921237  C 22.824519230769234 25.876933895921237  22.492788461538463 25.73886544772621  22.21875 25.462728551336145  C 21.94471153846154 25.186591654946085  21.80769230769231 24.859587435536803  21.807692307692307 24.481715893108298  C 21.80769230769231 23.91490857946554  22.08894230769231 23.486169714017816  22.651442307692307 23.19549929676512  C 23.45913461538462 22.774027191748708  24.00721153846154 22.454289732770743  24.295673076923077 22.236286919831223  C 25.362980769230774 21.451476793248943  26.195913461538463 20.466830754805436  26.794471153846153 19.2823488045007  C 27.393028846153847 18.097866854195967  27.692307692307693 16.8370839193624  27.692307692307693 15.5  C 27.692307692307693 14.162916080637597  27.393028846153847 12.90213314580403  26.794471153846153 11.717651195499295  C 26.195913461538463 10.53316924519456  25.362980769230774 9.548523206751055  24.295673076923077 8.763713080168776  C 24.00721153846154 8.545710267229255  23.45913461538462 8.225972808251289  22.651442307692307 7.804500703234879  C 22.08894230769231 7.513830285982182  21.80769230769231 7.085091420534459  21.807692307692307 6.5182841068917  C 21.80769230769231 6.140412564463194  21.94471153846154 5.8134083450539125  22.21875 5.537271448663854  C 22.492788461538463 5.261134552273792  22.817307692307693 5.123066104078763  23.192307692307693 5.123066104078763  C 23.379807692307693 5.123066104078763  23.567307692307697 5.159399906235344  23.754807692307693 5.232067510548525  C 25.774038461538463 6.0895452414439735  27.39663461538462 7.4593295827473  28.622596153846153 9.341420534458509  Z M 33.25240384615385 6.289381153305204  C 35.08413461538462 9.0870839193624  36 12.157290201593995  36 15.5  C 36 18.842709798406  35.08413461538462 21.912916080637594  33.25240384615385 24.710618846694796  C 31.42067307692308 27.508321612751992  28.98317307692308 29.56844819503047  25.939903846153847 30.890998593530238  C 25.752403846153847 30.963666197843413  25.564903846153847 31  25.377403846153847 31  C 25.002403846153847 31  24.677884615384617 30.86193155180497  24.403846153846153 30.585794655414908  C 24.129807692307697 30.309657759024848  23.99278846153846 29.982653539615562  23.99278846153846 29.60478199718706  C 23.99278846153846 29.081575246132207  24.27403846153846 28.65283638068448  24.83653846153846 28.318565400843884  C 24.9375 28.26043131739334  25.099759615384617 28.18413033286451  25.323317307692307 28.089662447257382  C 25.546875000000004 27.995194561650262  25.70913461538462 27.918893577121427  25.810096153846153 27.860759493670887  C 26.473557692307693 27.497421472105017  27.064903846153847 27.126816690107827  27.584134615384617 26.748945147679326  C 29.358173076923077 25.426394749179558  30.74278846153846 23.776840131270507  31.737980769230766 21.80028129395218  C 32.73317307692308 19.82372245663385  33.23076923076923 17.723628691983123  33.23076923076923 15.5  C 33.23076923076923 13.276371308016877  32.73317307692308 11.176277543366151  31.737980769230766 9.19971870604782  C 30.74278846153846 7.223159868729488  29.358173076923077 5.573605250820439  27.584134615384617 4.251054852320674  C 27.064903846153847 3.873183309892169  26.473557692307693 3.502578527894981  25.810096153846153 3.1392405063291133  C 25.70913461538462 3.081106422878572  25.546875000000004 3.00480543834974  25.323317307692307 2.9103375527426167  C 25.099759615384617 2.8158696671354866  24.9375 2.7395686826066545  24.83653846153846 2.6814345991561197  C 24.27403846153846 2.347163619315513  23.99278846153846 1.9184247538677903  23.99278846153846 1.3952180028129408  C 23.99278846153846 1.0173464603844313  24.129807692307697 0.6903422409751493  24.403846153846153 0.41420534458509095  C 24.677884615384617 0.13806844819502917  25.002403846153847 0  25.377403846153847 0  C 25.564903846153847 0  25.752403846153847 0.03633380215658499  25.939903846153847 0.10900140646976186  C 28.98317307692308 1.4315518049695224  31.42067307692308 3.491678387248004  33.25240384615385 6.289381153305204  Z " fill-rule="nonzero" fill="#555555" stroke="none" transform="matrix(1 0 0 1 1666 415 )" />
  </g>
</svg>