<?xml version="1.0" encoding="utf-8"?>
<svg version="1.1" xmlns:xlink="http://www.w3.org/1999/xlink" width="27px" height="28px" xmlns="http://www.w3.org/2000/svg">
  <g transform="matrix(1 0 0 1 -1418 -418 )">
    <path d="M 17.5546875 0.4375  C 17.851562499999996 0.7291666666666625  18 1.0745614035087683  18 1.4736842105263173  L 18 26.526315789473685  C 18 26.925438596491226  17.851562499999996 27.270833333333332  17.5546875 27.5625  C 17.257812500000004 27.854166666666668  16.90625 28  16.5 28  C 16.09375 28  15.7421875 27.854166666666668  15.445312500000002 27.5625  L 7.640625 19.894736842105264  L 1.5 19.894736842105264  C 1.0937500000000002 19.894736842105264  0.7421875 19.74890350877193  0.4453125 19.457236842105264  C 0.1484375 19.165570175438596  0 18.820175438596493  0 18.42105263157895  L 0 9.578947368421051  C 0 9.179824561403505  0.1484375 8.8344298245614  0.4453125 8.542763157894736  C 0.7421875 8.251096491228068  1.0937500000000002 8.105263157894736  1.5 8.105263157894736  L 7.640625 8.105263157894736  L 15.445312500000002 0.4375  C 15.7421875 0.14583333333333126  16.09375 0  16.5 0  C 16.90625 0  17.257812500000004 0.14583333333333126  17.5546875 0.4375  Z M 26.00390625 10.730263157894736  C 26.667968750000004 11.74342105263158  27 12.833333333333332  27 14  C 27 15.166666666666666  26.667968750000004 16.252741228070175  26.00390625 17.258223684210527  C 25.33984375 18.263706140350873  24.460937500000004 18.981359649122805  23.3671875 19.411184210526315  C 23.210937500000004 19.48793859649123  23.015625000000004 19.526315789473685  22.78125 19.526315789473685  C 22.375 19.526315789473685  22.023437500000004 19.384320175438596  21.7265625 19.100328947368425  C 21.4296875 18.816337719298243  21.28125 18.467105263157894  21.28125 18.05263157894737  C 21.28125 17.730263157894736  21.375 17.457785087719298  21.5625 17.23519736842105  C 21.75 17.012609649122805  21.9765625 16.820723684210527  22.2421875 16.659539473684212  C 22.507812500000004 16.498355263157894  22.773437500000004 16.321820175438596  23.0390625 16.129934210526315  C 23.3046875 15.938048245614034  23.53125 15.66173245614035  23.71875 15.300986842105264  C 23.90625 14.940241228070175  24 14.506578947368423  24 14  C 24 13.49342105263158  23.90625 13.059758771929822  23.71875 12.699013157894736  C 23.53125 12.338267543859649  23.3046875 12.061951754385962  23.0390625 11.870065789473683  C 22.773437500000004 11.678179824561402  22.507812500000004 11.501644736842106  22.2421875 11.340460526315788  C 21.9765625 11.179276315789474  21.75 10.987390350877192  21.5625 10.764802631578949  C 21.375 10.5422149122807  21.28125 10.26973684210526  21.28125 9.947368421052632  C 21.28125 9.532894736842103  21.4296875 9.183662280701752  21.7265625 8.89967105263158  C 22.023437500000004 8.615679824561402  22.375 8.473684210526317  22.78125 8.473684210526317  C 23.015625000000004 8.473684210526317  23.210937500000004 8.51206140350877  23.3671875 8.588815789473683  C 24.460937500000004 9.003289473684212  25.33984375 9.717105263157894  26.00390625 10.730263157894736  Z " fill-rule="nonzero" fill="#555555" stroke="none" transform="matrix(1 0 0 1 1418 418 )" />
  </g>
</svg>