<?xml version="1.0" encoding="utf-8"?>
<svg version="1.1" xmlns:xlink="http://www.w3.org/1999/xlink" width="42px" height="32px" xmlns="http://www.w3.org/2000/svg">
  <g transform="matrix(1 0 0 1 -1666 -612 )">
    <path d="M 41.241290322580646 4.417508417508419  C 41.74709677419355 4.920314253647586  42.00000000000001 5.530864197530864  42 6.249158249158249  C 42.00000000000001 6.967452300785631  41.74709677419355 7.578002244668909  41.241290322580646 8.08080808080808  L 21.623225806451615 27.58249158249158  L 17.93806451612903 31.245791245791246  C 17.43225806451613 31.748597081930416  16.818064516129034 32  16.095483870967744 32  C 15.372903225806452 32  14.758709677419356 31.748597081930416  14.252903225806453 31.245791245791246  L 10.56774193548387 27.58249158249158  L 0.7587096774193549 17.831649831649834  C 0.25290322580645186 17.32884399551066  0 16.71829405162738  0 16  C 0 15.281705948372615  0.25290322580645186 14.671156004489337  0.7587096774193549 14.16835016835017  L 4.443870967741935 10.505050505050505  C 4.949677419354839 10.002244668911334  5.563870967741937 9.750841750841747  6.286451612903226 9.75084175084175  C 7.009032258064518 9.750841750841747  7.623225806451614 10.002244668911334  8.129032258064516 10.505050505050505  L 16.095483870967744 18.45117845117845  L 33.87096774193548 0.7542087542087543  C 34.37677419354839 0.2514029180695836  34.99096774193549 0  35.71354838709677 0  C 36.436129032258066 0  37.050322580645165 0.2514029180695836  37.55612903225806 0.7542087542087543  L 41.241290322580646 4.417508417508419  Z " fill-rule="nonzero" fill="#f59a23" stroke="none" transform="matrix(1 0 0 1 1666 612 )" />
  </g>
</svg>