<?xml version="1.0" encoding="utf-8"?>
<svg version="1.1" xmlns:xlink="http://www.w3.org/1999/xlink" width="26px" height="31px" xmlns="http://www.w3.org/2000/svg">
  <g transform="matrix(1 0 0 1 -1676 -713 )">
    <path d="M 25.553264604810995 14.78557114228457  C 25.85108820160367 14.99265197060788  26 15.23079492317969  26 15.5  C 26 15.769205076820306  25.85108820160367 16.007348029392116  25.553264604810995 16.21442885771543  L 4.7353951890034365 30.68937875751503  C 4.437571592210768 30.896459585838343  4.095074455899198 31  3.7079037800687282 31  C 3.3207331042382595 31  2.9782359679266897 30.896459585838343  2.6804123711340204 30.68937875751503  L 0.44673539518900346 29.136272545090183  C 0.1489117983963346 28.929191716766862  0 28.691048764195056  0 28.42184368737475  C 0 28.15263861055444  0.1489117983963346 27.914495657982634  0.44673539518900346 27.707414829659317  L 18.00343642611684 15.5  L 0.44673539518900346 3.292585170340681  C 0.1489117983963346 3.0855043420173667  0 2.8473613894455565  0 2.5781563126252514  C 0 2.308951235804939  0.1489117983963346 2.0708082832331294  0.44673539518900346 1.8637274549098182  L 2.6804123711340204 0.31062124248497025  C 2.9782359679266897 0.1035404141616556  3.3207331042382595 0  3.7079037800687282 0  C 4.095074455899198 0  4.437571592210768 0.1035404141616556  4.7353951890034365 0.31062124248497025  L 25.553264604810995 14.78557114228457  Z " fill-rule="nonzero" fill="#7f7f7f" stroke="none" transform="matrix(1 0 0 1 1676 713 )" />
  </g>
</svg>