<?xml version="1.0" encoding="utf-8"?>
<svg version="1.1" xmlns:xlink="http://www.w3.org/1999/xlink" width="58px" height="41px" xmlns="http://www.w3.org/2000/svg">
  <g transform="matrix(1 0 0 1 -1098 -1223 )">
    <path d="M 57.94893081761006 28.8145045045045  C 57.94893081761006 24.78837837837838  56.00830188679246 21.12792792792793  52.72893081761007 18.904324324324328  C 52.615849056603764 15.133063063063068  50.266666666666666 11.923243243243249  46.98364779874214 10.578738738738744  C 47.30100628930818 9.16774774774775  47.2462893081761 7.690270270270273  46.812201257861645 6.271891891891896  C 46.169378241151186 4.14484207173272  44.71440871885087 2.3657424888968084  42.770440251572325 1.329729729729733  C 38.918364779874224 -0.7313513513513501  34.172578616352205 0.59837837837838  31.892704402515733 4.277297297297299  C 29.422814358677115 2.1720823585880074  26.297118763411717 1.0193812005033773  23.068679245283022 1.0231531531531544  C 15.492201257861641 1.0231531531531544  9.331069182389939 7.265495495495497  9.331069182389939 14.937297297297297  C 9.331069182389939 15.679729729729731  9.389433962264155 16.422162162162167  9.50616352201258 17.149819819819818  C 4.132955974842769 18.313333333333333  0.20427672955975057 23.152072072072066  0.20427672955975057 28.8145045045045  C 0.20427672955975057 35.389279279279265  5.489937106918243 40.74144144144144  11.983018867924528 40  L 46.17018867924528 40  C 52.66327044025157 40.74144144144144  57.94893081761006 35.389279279279265  57.94893081761006 28.8145045045045  Z M 33.33358490566038 5.703063063063073  C 34.97874213836477 2.6114414414414493  38.79069182389937 1.4331531531531618  41.862138364779874 3.076846846846849  C 43.357735849056596 3.878378378378384  44.455723270440245 5.219189189189192  44.951823899371064 6.855495495495499  C 45.272830188679244 7.9045045045045095  45.320251572327045 8.994144144144146  45.10503144654088 10.043153153153158  C 44.60528301886792 9.958198198198208  44.08729559748427 9.91387387387388  43.56201257861635 9.91387387387388  C 40.884528301886796 9.91387387387388  38.39308176100629 11.11432432432433  36.68591194968553 13.064594594594606  C 36.310188679245286 10.261081081081093  35.106415094339624 7.719819819819827  33.33358490566038 5.703063063063073  Z M 56.004654088050316 28.8145045045045  C 56.00100628930818 34.303333333333335  51.59081761006289 38.7727027027027  46.17018867924528 38  L 11.983018867924528 38  C 6.562389937106919 38.7727027027027  2.152201257861635 34.307027027027026  2.152201257861635 28.818198198198196  C 2.152201257861635 23.794774774774776  5.858364779874212 19.547027027027024  10.77559748427673 18.937567567567562  C 11.052830188679247 18.900630630630626  11.300880503144652 18.752882882882876  11.457735849056606 18.520180180180176  C 11.614591194968554 18.287477477477474  11.669308176100632 17.999369369369365  11.60364779874214 17.726036036036035  C 11.388427672955977 16.82108108108108  11.278993710691825 15.886576576576573  11.278993710691825 14.940990990990986  C 11.278993710691825 8.358828828828825  16.568301886792455 3.0029729729729686  23.068679245283022 3.0029729729729686  C 26.132830188679247 3.0029729729729686  28.930691823899377 4.192342342342338  31.03182389937107 6.1426126126126075  C 31.30540880503145 6.397477477477475  31.568050314465406 6.663423423423421  31.816100628930823 6.9441441441441425  C 32.100628930817614 7.261801801801803  32.36691823899371 7.597927927927928  32.618616352201265 7.945135135135135  C 33.78955974842768 9.574054054054054  34.55924528301887 11.516936936936933  34.78905660377359 13.618648648648646  C 34.83647798742138 14.039729729729727  34.858364779874215 14.468198198198198  34.86201257861635 14.904054054054052  L 34.86201257861635 14.940990990990986  C 34.86201257861635 15.306666666666661  34.84377358490566 15.67234234234234  34.81459119496855 16.03063063063063  C 34.792704402515724 16.259639639639634  34.767169811320755 16.484954954954947  34.73433962264151 16.710270270270264  C 34.708805031446545 16.87648648648648  34.727044025157234 17.035315315315312  34.77811320754717 17.183063063063056  C 34.88754716981132 17.49702702702702  35.146540880503146 17.7445045045045  35.48943396226415 17.818378378378373  C 35.83962264150944 17.89594594594594  36.18981132075473 17.77405405405405  36.4159748427673 17.522882882882875  C 36.51446540880504 17.415765765765755  36.591069182389944 17.28648648648648  36.63484276729561 17.13504504504504  C 36.92301886792454 16.141441441441437  37.411823899371086 15.243873873873866  38.04654088050315 14.486666666666663  C 39.3925786163522 12.879909909909905  41.40251572327045 11.882612612612608  43.56566037735849 11.882612612612608  C 44.18612797013894 11.88239710606796  44.80403990013293 11.963090765138366  45.40415094339624 12.122702702702695  C 45.725157232704404 12.207657657657652  46.035220125786175 12.314774774774772  46.33798742138366 12.440360360360359  C 48.949811320754726 13.54477477477477  50.78830188679246 16.156216216216215  50.78830188679246 19.196126126126124  C 50.78830188679246 19.27  50.78830188679246 19.34018018018018  50.78465408805032 19.414054054054052  C 50.77371069182391 19.77234234234234  50.95245283018868 20.104774774774775  51.25522012578616 20.28945945945946  C 54.231823899371065 22.11045045045045  56.004654088050316 25.294414414414415  56.004654088050316 28.8145045045045  Z " fill-rule="nonzero" fill="#f59a23" stroke="none" transform="matrix(1 0 0 1 1098 1223 )" />
  </g>
</svg>