<?xml version="1.0" encoding="utf-8"?>
<svg version="1.1" xmlns:xlink="http://www.w3.org/1999/xlink" width="66px" height="71px" xmlns="http://www.w3.org/2000/svg">
  <g transform="matrix(1 0 0 1 -1214 -1208 )">
    <path d="M 59.93151901158289 11.357114691440158  C 59.490229518917985 11.357114691440158  59.056906869024054 11.239496478541842  58.676129032258075 11.016359999999999  L 48.101935483870975 4.78682  C 46.897215531498716 4.060384477818088  46.49104145008623 2.5055111655769715  47.18645161290322 1.2822599999999995  C 47.62430531130173 0.49259132891783447  48.45588479243236 0.002711205297670566  49.35850651261356 0.002711205297670566  C 49.79991280246408 0.002711205297670566  50.233345855869686 0.1203916497650237  50.61419354838709 0.34364  L 61.18838709677419 6.57318  C 62.39333898115667 7.299100475561103  62.799614098578694 8.854045478223389  62.10387096774194 10.07703  C 61.66610556993372 10.86699858595196  60.83436007088826 11.357114691440158  59.93151901158289 11.357114691440158  Z M 33 4.970000000000001  C 51.22539674441619 4.970000000000001  66 19.751318984336358  66 37.985  C 66 56.218681015663655  51.22539674441619 71  33 71  C 14.774603255583825 71  0 56.218681015663655  0 37.985  C 0 19.751318984336358  14.774603255583818 4.970000000000003  33 4.970000000000003  Z M 33.00000000000001 9.230000000000004  C 17.12626735163753 9.230000000000004  4.258064516129039 22.10405201861554  4.258064516129039 37.985  C 4.258064516129039 53.865947981384465  17.12626735163753 66.74  33.00000000000001 66.74  C 48.87373264836249 66.74  61.74193548387098 53.865947981384465  61.74193548387098 37.985  C 61.74193548387098 22.10405201861554  48.87373264836249 9.230000000000004  33.00000000000001 9.230000000000004  Z M 31.580645161290324 41.18000000000001  C 30.208841105258998 41.18000000000001  29.096774193548384 40.06742760332953  29.096774193548384 38.69500000000001  C 29.096774193548384 38.69500000000001  29.096774193548384 38.695  29 38.695  L 29 18.815  C 29.0967742513656 17.442572437572007  30.208841146141943 16.33000010473492  31.580645161290324 16.33000010473492  C 32.95244921732164 16.33000010473492  34.064516129032256 17.442572501405397  34.064516129032256 18.81500010473492  C 34.064516129032256 18.81500003491164  34.064516129032256 18.815000069823277  34 18.815  L 34 38.695  C 34.06451612903225 38.695  34.06451612903225 38.69500000000001  34.06451612903225 38.69500000000001  C 34.06451612903225 40.06742760332953  32.95244921732164 41.18000000000001  31.580645161290313 41.18000000000001  Z M 18.367236389673153 3.009258006070069  C 18.367236389673153 3.9029434085192434  17.887574927016196 4.727801092906206  17.11103225806452 5.16951  L 6.663161290322586 11.20451  C 6.288976910132631 11.41735158647511  5.86592950870359 11.529258006070123  5.435494454189192 11.529258006070123  C 4.063690398157868 11.529258006070123  2.9516234864472572 10.416685609399645  2.9516234864472572 9.044258006070123  C 2.9516234864472572 8.162350747241431  3.4188293203554885 7.3465097637574175  4.179290322580649 6.90049  L 14.627161290322583 0.8654899999999994  C 15.008130542266388 0.6420468316407618  15.441755794210428 0.5242580060700689  15.883365421931222 0.5242580060700689  C 17.255169477962543 0.5242580060700689  18.367236389673153 1.636830402740547  18.367236389673153 3.009258006070069  Z " fill-rule="nonzero" fill="#aaaaaa" stroke="none" transform="matrix(1 0 0 1 1214 1208 )" />
  </g>
</svg>