<?xml version="1.0" encoding="utf-8"?>
<svg version="1.1" xmlns:xlink="http://www.w3.org/1999/xlink" width="53px" height="53px" xmlns="http://www.w3.org/2000/svg">
  <g transform="matrix(1 0 0 1 -1345 -1217 )">
    <path d="M 52.8399470225941 26.494941438432175  C 52.8399470225941 11.96674326393822  41.02313961292614 0.14993585427024148  26.49494143843217 0.14993585427024148  C 11.966743263938211 0.14993585427024148  0.14993585427024306 11.966743263938211  0.14993585427024306 26.49494143843217  C 0.14993585427024306 41.02313961292614  11.966743263938211 52.8399470225941  26.49494143843217 52.8399470225941  C 41.02313961292614 52.8399470225941  52.8399470225941 41.02313961292614  52.8399470225941 26.494941438432175  Z M 49.06625768155185 26.49494143843217  C 49.06625768155185 38.94912801735617  38.93901089422053 49.06625768155184  26.49494143843217 49.06625768155184  C 14.05087198264382 49.06625768155184  3.9236251953125 38.939010894220516  3.9236251953125 26.49494143843217  C 3.9236251953125 14.050871982643818  14.040754859508167 3.9236251953124963  26.49494143843217 3.9236251953124963  C 38.94912801735617 3.9236251953124963  49.06625768155185 14.040754859508164  49.06625768155185 26.49494143843217  Z " fill-rule="nonzero" fill="#aaaaaa" stroke="none" transform="matrix(1 0 0 1 1345 1217 )" />
  </g>
</svg>