<?xml version="1.0" encoding="utf-8"?>
<svg version="1.1" xmlns:xlink="http://www.w3.org/1999/xlink" width="37px" height="31px" xmlns="http://www.w3.org/2000/svg">
  <g transform="matrix(1 0 0 1 -1102 -539 )">
    <path d="M 35.904287195467816 28.887006070855623  C 36.44252551910472 28.887006070855623  36.87890972033636 29.311303486826827  36.87910891089109 29.834827586206895  C 36.87910891089109 30.36218390804597  36.44316831683168 30.786206896551718  35.9009900990099 30.786206896551718  L 9.151089108910893 30.786206896551718  C 5.670891089108913 30.786206896551718  2.42881188118812 29.11149425287356  0.4799009900990107 26.303678160919535  C 0.17950495049505025 25.868965517241374  0.29673267326732755 25.27747126436782  0.7436633663366341 24.98528735632184  C 1.1905940594059405 24.68954022988506  1.7987128712871274 24.803563218390803  2.1027722772277238 25.241839080459776  C 2.2712871287128724 25.484137931034486  2.4507920792079223 25.712183908045986  2.6376237623762413 25.933103448275872  C 4.251053284060503 27.80644603811843  6.634935049307393 28.88816366154858  9.14742574257426 28.88701149425288  L 35.9009900990099 28.88701149425288  C 35.902089127234234 28.887007878657283  35.90318816095719 28.887006070855623  35.904287195467816 28.887006070855623  Z M 18.459702970297027 0.007126436781610309  C 18.998217821782177 0.007126436781610309  19.437821782178215 0.4347126436781605  19.43782178217822 0.9585057471264359  C 19.43782178217822 1.485862068965518  18.998217821782177 1.9098850574712616  18.459702970297027 1.9098850574712616  C 18.100693069306924 1.9098850574712616  17.75267326732673 1.934827586206894  17.408316831683166 1.981149425287352  C 14.14792079207921 2.4336781609195395  11.565247524752474 4.945747126436775  11.1 8.117011494252868  C 11.052376237623765 8.4519540229885  11.026732673267324 8.794022988505743  11.026732673267324 9.139655172413791  C 11.026732673267324 9.667011494252872  10.59079207920792 10.091034482758618  10.048613861386135 10.091034482758618  C 9.50643564356435 10.091034482758618  9.070495049504947 9.667011494252872  9.070495049504947 9.139655172413796  C 9.070495049504947 4.104827586206895  13.28336633663366 0.007126436781610309  18.459702970297027 0.007126436781610309  Z " fill-rule="nonzero" fill="#c280ff" stroke="none" transform="matrix(1 0 0 1 1102 539 )" />
  </g>
</svg>