<?xml version="1.0" encoding="utf-8"?>
<svg version="1.1" xmlns:xlink="http://www.w3.org/1999/xlink" width="85px" height="57px" xmlns="http://www.w3.org/2000/svg">
  <g transform="matrix(1 0 0 1 -1317 -707 )">
    <path d="M 14.245357450358078 57  L 67.31407089029948 57  C 77.0674597681236 57  84.97378114569564 49.15611371546549  84.97378114569564 39.48018962595077  C 84.97378114569564 31.149179186559888  79.060410291182 23.970389541811326  70.8312869140625 22.311303446003162  C 69.27892170410156 10.129061798418466  58.79713003336588 0.7069108552920536  46.09656499023438 0.7069109239189837  C 32.3293032796224 0.7069109239189837  21.163362117513024 11.781376039881264  21.163362048339852 25.442119757632753  C 21.162839354870474 27.21743626883451  21.35428422185084 28.987686040557424  21.73441069742839 30.72248457825425  C 19.53029739900435 29.42091930607266  17.012869446129287 28.73387510592181  14.447861925307722 28.73387510592181  C 6.579860260428707 28.73387510592181  0.20158467921397066 35.06178235396182  0.20158467921397066 42.86765153111277  C 0.20158467921397066 50.5951746524942  6.457112393961779 56.89015670091525  14.245357450358078 57  Z " fill-rule="nonzero" fill="#2674fd" stroke="none" transform="matrix(1 0 0 1 1317 707 )" />
  </g>
</svg>