<?xml version="1.0" encoding="utf-8"?>
<svg version="1.1" xmlns:xlink="http://www.w3.org/1999/xlink" width="42px" height="28px" xmlns="http://www.w3.org/2000/svg">
  <g transform="matrix(1 0 0 1 -1102 -925 )">
    <path d="M 7.038882504882816 28  L 33.261070322265624 28  C 38.08039188542578 28  41.987044801402554 24.14686287777252  41.987044801402554 19.393777360116168  C 41.987044801402554 15.301351179362753  39.06514390858404 11.774928195977493  34.998988828125 10.959938534878747  C 34.23193778320313 4.97567947992486  29.052699545898435 0.3472544552311842  22.77712623046875 0.34725448894265865  C 15.974479267578126 0.34725448894265865  10.457190693359378 5.787342616082024  10.457190659179693 12.497883389714335  C 10.45693238711247 13.369968693462567  10.551528674326297 14.239565072554525  10.739355874023442 15.091746810370509  C 9.65026459715509 14.452381413509375  8.406359020440354 14.114886016944046  7.138943539563815 14.114886016944046  C 3.251225069858891 14.114886016944046  0.09960654737631491 17.22333168264791  0.09960654737631491 21.05779373458171  C 0.09960654737631491 24.853770004733995  3.1905731828987616 27.946041888168896  7.038882504882816 28  Z " fill-rule="nonzero" fill="#f2f2f2" stroke="none" transform="matrix(1 0 0 1 1102 925 )" />
  </g>
</svg>